<svg width="28" height="28" viewBox="0 0 28 28" fill="none" xmlns="http://www.w3.org/2000/svg">
<g clip-path="url(#clip0_5315_62891)">
<path d="M16.018 2.86526C15.9351 2.94601 15.8692 3.04263 15.8244 3.14937C15.7796 3.2561 15.7568 3.37076 15.7572 3.48651L15.7572 8.04375C15.7572 8.39924 15.469 8.68745 15.1135 8.68745L0.862508 8.68745C0.386146 8.68745 -7.12557e-07 9.0736 -6.91734e-07 9.54996L-3.04019e-07 18.4199C-2.83196e-07 18.8962 0.386146 19.2824 0.862508 19.2824L15.1135 19.2824C15.469 19.2824 15.7572 19.5706 15.7572 19.9261L15.7572 24.4962C15.7482 24.9725 16.127 25.3659 16.6033 25.3748C16.7212 25.3771 16.8384 25.3551 16.9475 25.3102C17.0566 25.2654 17.1554 25.1986 17.2377 25.1141L27.7425 14.6093C27.9048 14.4495 27.9974 14.232 28 14.0042C28.0004 13.8892 27.9779 13.7753 27.9336 13.6692C27.8894 13.5631 27.8244 13.4669 27.7425 13.3863L17.2377 2.88143C16.9054 2.54018 16.3593 2.53294 16.018 2.86526Z" fill="#3076C5"/>
</g>
<defs>
<clipPath id="clip0_5315_62891">
<rect width="28" height="28" fill="white"/>
</clipPath>
</defs>
</svg>
