<svg width="43" height="29" viewBox="0 0 43 29" fill="none" xmlns="http://www.w3.org/2000/svg">
<path d="M12.875 0.75H16.875L30.375 14.25L16.875 27.75H12.875V0.75Z" fill="white"/>
<path d="M16.875 0.75H12.875V27.75H16.875M16.875 0.75L30.375 14.25L16.875 27.75M16.875 0.75V27.75" stroke="#6B7280"/>
<path d="M0.875 4.25H11.875M11.875 4.25L8.875 1.25M11.875 4.25L8.875 7.25" stroke="#3076C5"/>
<path d="M0.875 14.25H11.875M11.875 14.25L8.875 11.25M11.875 14.25L8.875 17.25" stroke="#3076C5"/>
<path d="M30.375 14.25H41.375M41.375 14.25L38.375 11.25M41.375 14.25L38.375 17.25" stroke="#3076C5"/>
<path d="M0.875 25.25H11.875M11.875 25.25L8.875 22.25M11.875 25.25L8.875 28.25" stroke="#3076C5"/>
</svg>
