<svg width="38" height="43" viewBox="0 0 38 43" fill="none" xmlns="http://www.w3.org/2000/svg">
<path d="M36.625 3.75H20.625V7.25M36.625 3.75L33.625 0.75M36.625 3.75L33.625 6.75" stroke="#3076C5"/>
<path d="M0.625 19.75H8.625M8.625 19.75L5.625 16.75M8.625 19.75L5.625 22.75" stroke="#3076C5"/>
<path d="M32.625 11.25V31.75C32.625 33.0833 29.625 35.75 21.625 35.75C12.825 35.75 10.625 33.0833 10.625 31.75V11.25C10.625 9.91667 13.625 7.25 21.625 7.25C29.625 7.25 32.625 9.75 32.625 11.25Z" fill="white"/>
<path d="M10.625 31.75H32.625M10.625 31.75V11.25M10.625 31.75C10.625 33.0833 12.825 35.75 21.625 35.75C29.625 35.75 32.625 33.0833 32.625 31.75M32.625 31.75V11.25M32.625 11.25H10.625M32.625 11.25C32.625 9.75 29.625 7.25 21.625 7.25C13.625 7.25 10.625 9.91667 10.625 11.25" stroke="#6B7280"/>
<path d="M36.625 39.25H20.625V35.75M36.625 39.25L33.625 42.25M36.625 39.25L33.625 36.25" stroke="#3076C5"/>
</svg>
