<svg width="41" height="43" viewBox="0 0 41 43" fill="none" xmlns="http://www.w3.org/2000/svg">
<path d="M39.875 4H13.875V6.5M39.875 4L36.875 1M39.875 4L36.875 7" stroke="#3076C5"/>
<path d="M39.875 39L36.875 42M39.875 39L36.875 36M39.875 39H28.375H13.875V36.5" stroke="#3076C5"/>
<path d="M0.875 21H7.875M7.875 21L4.875 18M7.875 21L4.875 24" stroke="#3076C5"/>
<path d="M8.875 11C8.875 8.79086 10.6659 7 12.875 7H15.875C18.0841 7 19.875 8.79086 19.875 11V18.5V30V32C19.875 34.2091 18.0841 36 15.875 36H12.875C10.6659 36 8.875 34.2091 8.875 32V24.5V14V11Z" fill="white" stroke="#6B7280"/>
<path d="M13.875 8.5L13.375 16.5L10.375 21L13.375 27.5L13.875 34.5" stroke="#3076C5" stroke-dasharray="2 2"/>
</svg>
