<svg width="43" height="29" viewBox="0 0 43 29" fill="none" xmlns="http://www.w3.org/2000/svg">
<path d="M30.375 0.5H26.375L12.875 14L26.375 27.5H30.375V0.5Z" fill="white"/>
<path d="M26.375 0.5H30.375V27.5H26.375M26.375 0.5L12.875 14L26.375 27.5M26.375 0.5V27.5" stroke="#6B7280"/>
<path d="M30.875 14.5H41.875M41.875 14.5L38.875 11.5M41.875 14.5L38.875 17.5" stroke="#3076C5"/>
<path d="M0.875 14.5H11.875M11.875 14.5L8.875 11.5M11.875 14.5L8.875 17.5" stroke="#3076C5"/>
<path d="M30.875 4.5H41.875M41.875 4.5L38.875 1.5M41.875 4.5L38.875 7.5" stroke="#3076C5"/>
<path d="M30.875 25.5H41.875M41.875 25.5L38.875 22.5M41.875 25.5L38.875 28.5" stroke="#3076C5"/>
</svg>
