<svg width="46" height="27" viewBox="0 0 46 27" fill="none" xmlns="http://www.w3.org/2000/svg">
<path d="M37.625 13H44.625M44.625 13L41.625 10M44.625 13L41.625 16" stroke="#3076C5"/>
<path d="M0.625 13H7.625M7.625 13L4.625 10M7.625 13L4.625 16" stroke="#3076C5"/>
<path d="M13.6249 15.5C18.0249 21.1 14.4583 24.8333 12.1249 26H33.625C35.9583 25.6667 39.725 23 36.125 15C35.9723 14.6607 35.8287 14.3273 35.6937 14C32.6461 6.61011 34.0078 2.27678 35.125 1H11.6249C10.7311 2.91535 9.79812 7.11988 11.3893 11.5C11.875 12.837 12.5959 14.1904 13.6249 15.5Z" fill="white"/>
<path d="M12.1249 26C14.4583 24.8333 18.0249 21.1 13.6249 15.5C12.5959 14.1904 11.875 12.837 11.3893 11.5C8.40085 16.3 10.6345 23.1667 12.1249 26Z" fill="white"/>
<path d="M35.125 1C34.0078 2.27678 32.6461 6.61011 35.6937 14C39.3486 6 36.8374 2 35.125 1Z" fill="white"/>
<path d="M12.1249 26C14.4583 24.8333 18.0249 21.1 13.6249 15.5C12.5959 14.1904 11.875 12.837 11.3893 11.5M12.1249 26C10.6345 23.1667 8.40085 16.3 11.3893 11.5M12.1249 26H33.625C35.9583 25.6667 39.725 23 36.125 15C35.9723 14.6607 35.8287 14.3273 35.6937 14M11.3893 11.5C9.79812 7.11988 10.7311 2.91535 11.6249 1H35.125M35.125 1C34.0078 2.27678 32.6461 6.61011 35.6937 14M35.125 1C36.8374 2 39.3486 6 35.6937 14" stroke="#6B7280"/>
</svg>
