<svg width="41" height="43" viewBox="0 0 41 43" fill="none" xmlns="http://www.w3.org/2000/svg">
<path d="M39.625 4H13.625V6.5M39.625 4L36.625 1M39.625 4L36.625 7" stroke="#3076C5"/>
<path d="M39.625 39L36.625 42M39.625 39L36.625 36M39.625 39H28.125M13.625 36.5V39H28.125M20.125 25.5H28.125V27M28.125 36V39" stroke="#3076C5"/>
<path d="M20.625 18H28.125M39.625 18L36.625 21M39.625 18L36.625 15M39.625 18H28.125M28.125 16C30.6103 16 32.625 13.9853 32.625 11.5C32.625 9.01472 30.6103 7 28.125 7M28.125 16C25.6397 16 23.625 13.9853 23.625 11.5C23.625 9.01472 25.6397 7 28.125 7M28.125 16V18M28.125 7V4" stroke="#3076C5"/>
<path d="M0.625 21H7.625M7.625 21L4.625 18M7.625 21L4.625 24" stroke="#3076C5"/>
<path d="M8.625 11C8.625 8.79086 10.4159 7 12.625 7H15.625C17.8341 7 19.625 8.79086 19.625 11V18.5V30V32C19.625 34.2091 17.8341 36 15.625 36H12.625C10.4159 36 8.625 34.2091 8.625 32V24.5V14V11Z" fill="white"/>
<path d="M8.625 14V11C8.625 8.79086 10.4159 7 12.625 7H15.625C17.8341 7 19.625 8.79086 19.625 11V18.5M8.625 14H14.125M8.625 14V24.5M19.625 18.5H14.125M19.625 18.5V30M8.625 24.5V32C8.625 34.2091 10.4159 36 12.625 36H15.625C17.8341 36 19.625 34.2091 19.625 32V30M8.625 24.5H14.125M19.625 30H14.125" stroke="#6B7280"/>
<circle cx="28.125" cy="31.5" r="4" stroke="#EF4444"/>
</svg>
