<svg width="43" height="29" viewBox="0 0 43 29" fill="none" xmlns="http://www.w3.org/2000/svg">
<path d="M34.625 6H41.625M41.625 6L38.625 3M41.625 6L38.625 9" stroke="#3076C5"/>
<path d="M29.625 13.5C29.625 17.9762 27.2722 21.9029 23.7358 24.1108C21.8181 25.3081 19.5524 26 17.125 26C14.6237 26 12.294 25.2653 10.3399 24C6.90072 21.773 4.625 17.9023 4.625 13.5C4.625 6.59644 10.2214 1 17.125 1C22.8136 1 27.6147 4.79996 29.1284 10C29.4517 11.1106 29.625 12.2851 29.625 13.5Z" fill="white"/>
<path d="M17.125 26C14.6237 26 12.294 25.2653 10.3399 24L6.33993 28H27.625L23.7358 24.1108C21.8181 25.3081 19.5524 26 17.125 26Z" fill="white"/>
<path d="M33.625 10V1H17.125C22.8136 1 27.6147 4.79996 29.1284 10H33.625Z" fill="white"/>
<path d="M29.125 10H29.1284M17.125 1H33.625V10H29.1284M17.125 1C10.2214 1 4.625 6.59644 4.625 13.5C4.625 17.9023 6.90072 21.773 10.3399 24M17.125 1C22.8136 1 27.6147 4.79996 29.1284 10M10.3399 24C12.294 25.2653 14.6237 26 17.125 26C19.5524 26 21.8181 25.3081 23.7358 24.1108M10.3399 24L6.33993 28H27.625L23.7358 24.1108M23.7358 24.1108C27.2722 21.9029 29.625 17.9762 29.625 13.5C29.625 12.2851 29.4517 11.1106 29.1284 10" stroke="#6B7280"/>
<path d="M0.625 14H13.625M13.625 14L10.625 11M13.625 14L10.625 17" stroke="#3076C5"/>
</svg>
