<svg width="16" height="16" viewBox="0 0 16 16" fill="none" xmlns="http://www.w3.org/2000/svg">
<g clip-path="url(#clip0_7439_24291)">
<path d="M12 7.3335V4.00016C12 3.64654 11.8595 3.3074 11.6095 3.05735C11.3594 2.80731 11.0203 2.66683 10.6667 2.66683C10.313 2.66683 9.97389 2.80731 9.72385 3.05735C9.4738 3.3074 9.33332 3.64654 9.33332 4.00016M9.33332 6.66683V2.66683C9.33332 2.31321 9.19284 1.97407 8.9428 1.72402C8.69275 1.47397 8.35361 1.3335 7.99999 1.3335C7.64637 1.3335 7.30723 1.47397 7.05718 1.72402C6.80713 1.97407 6.66665 2.31321 6.66665 2.66683V4.00016M6.66665 4.00016V7.00016M6.66665 4.00016C6.66665 3.64654 6.52618 3.3074 6.27613 3.05735C6.02608 2.80731 5.68694 2.66683 5.33332 2.66683C4.9797 2.66683 4.64056 2.80731 4.39051 3.05735C4.14046 3.3074 3.99999 3.64654 3.99999 4.00016V9.3335M12 5.3335C12 4.97987 12.1405 4.64074 12.3905 4.39069C12.6406 4.14064 12.9797 4.00016 13.3333 4.00016C13.6869 4.00016 14.0261 4.14064 14.2761 4.39069C14.5262 4.64074 14.6667 4.97987 14.6667 5.3335V9.3335C14.6667 10.748 14.1048 12.1045 13.1046 13.1047C12.1044 14.1049 10.7478 14.6668 9.33332 14.6668H7.99999C6.13332 14.6668 4.99999 14.0935 4.00665 13.1068L1.60665 10.7068C1.37728 10.4528 1.25438 10.1203 1.2634 9.77812C1.27243 9.43597 1.41269 9.1104 1.65513 8.8688C1.89758 8.62721 2.22365 8.48811 2.56584 8.48029C2.90802 8.47248 3.2401 8.59656 3.49332 8.82683L4.66665 10.0002" stroke="#3076C5" stroke-width="2" stroke-linecap="round" stroke-linejoin="round"/>
</g>
<defs>
<clipPath id="clip0_7439_24291">
<rect width="16" height="16" fill="white"/>
</clipPath>
</defs>
</svg>
