<svg width="30" height="26" viewBox="0 0 30 26" fill="none" xmlns="http://www.w3.org/2000/svg">
<path d="M22.5 9.5H25.5V4.5H0.5V23.5H18.5V19.5L16.5 17.5H13.5V20.5H4.5V14.5H13.5V17.5H16.5L18.5 15.5V12.5H22.5V9.5Z" fill="white"/>
<path d="M25.5 0.5H0.5V4.5H25.5V0.5Z" fill="#3076C5"/>
<path d="M13.5 17.5V14.5H4.5V20.5H13.5V17.5Z" fill="#C3F0F4"/>
<path d="M18.5 15.5L16.5 17.5L18.5 19.5L20.5 17.5L18.5 15.5Z" fill="#F0A800"/>
<path d="M29.5 9.5H25.5H22.5V12.5V15.5H29.5V9.5Z" fill="#C3F0F4"/>
<path d="M22.5 19.5V23.5V25.5H29.5V19.5H22.5Z" fill="#C3F0F4"/>
<path d="M25.5 9.5H29.5V15.5H22.5V12.5M25.5 9.5H22.5V12.5M25.5 9.5V4.5M22.5 12.5H18.5V15.5M18.5 15.5L16.5 17.5M18.5 15.5L20.5 17.5L18.5 19.5M16.5 17.5L18.5 19.5M16.5 17.5H13.5M18.5 19.5V23.5M13.5 17.5V14.5H4.5V20.5H13.5V17.5ZM18.5 23.5H22.5M18.5 23.5H0.5V4.5M22.5 23.5V19.5H29.5V25.5H22.5V23.5ZM0.5 4.5V0.5H25.5V4.5M0.5 4.5H25.5" stroke="#1F2937"/>
</svg>
