<svg width="16" height="16" viewBox="0 0 16 16" fill="none" xmlns="http://www.w3.org/2000/svg">
<path d="M3.33325 2.6665H3.99992C4.53035 2.6665 5.03906 2.87722 5.41413 3.25229C5.78921 3.62736 5.99992 4.13607 5.99992 4.6665M5.99992 4.6665C5.99992 4.13607 6.21063 3.62736 6.5857 3.25229C6.96078 2.87722 7.46949 2.6665 7.99992 2.6665H8.66659M5.99992 4.6665V11.3332M8.66659 13.3332H7.99992C7.46949 13.3332 6.96078 13.1225 6.5857 12.7474C6.21063 12.3723 5.99992 11.8636 5.99992 11.3332M5.99992 11.3332C5.99992 11.8636 5.78921 12.3723 5.41413 12.7474C5.03906 13.1225 4.53035 13.3332 3.99992 13.3332H3.33325M3.33325 10.6665H2.66659C2.31296 10.6665 1.97382 10.526 1.72378 10.276C1.47373 10.0259 1.33325 9.68679 1.33325 9.33317V6.6665C1.33325 6.31288 1.47373 5.97374 1.72378 5.72369C1.97382 5.47365 2.31296 5.33317 2.66659 5.33317H3.33325M8.66659 5.33317H13.3333C13.6869 5.33317 14.026 5.47365 14.2761 5.72369C14.5261 5.97374 14.6666 6.31288 14.6666 6.6665V9.33317C14.6666 9.68679 14.5261 10.0259 14.2761 10.276C14.026 10.526 13.6869 10.6665 13.3333 10.6665H8.66659" stroke="#3076C5" stroke-width="2" stroke-linecap="round" stroke-linejoin="round"/>
</svg>
